<svg xmlns="http://www.w3.org/2000/svg" viewBox="38.01 143.62 343.99 118.05">
  <path d="M 103.265 172.121 Q 97.565 169.121 90.965 167.021 Q 84.365 164.921 78.215 164.921 Q 69.815 164.921 64.865 168.746 Q 59.915 172.571 59.915 179.171 Q 59.915 183.821 63.215 187.271 Q 66.515 190.721 71.765 193.271 Q 77.015 195.821 82.865 198.071 Q 87.815 199.871 92.69 202.346 Q 97.565 204.821 101.54 208.421 Q 105.515 212.021 107.84 217.346 Q 110.165 222.671 110.165 230.321 Q 110.165 239.021 105.89 246.071 Q 101.615 253.121 93.59 257.246 Q 85.565 261.371 74.165 261.371 Q 67.265 261.371 60.74 259.796 Q 54.215 258.221 48.44 255.596 Q 42.665 252.971 38.015 249.821 L 45.215 237.371 Q 48.815 239.921 53.465 242.246 Q 58.115 244.571 63.14 245.921 Q 68.165 247.271 72.665 247.271 Q 77.615 247.271 82.415 245.546 Q 87.215 243.821 90.365 240.146 Q 93.515 236.471 93.515 230.471 Q 93.515 225.371 90.74 221.846 Q 87.965 218.321 83.39 215.771 Q 78.815 213.221 73.565 211.271 Q 68.465 209.321 63.215 206.921 Q 57.965 204.521 53.465 201.146 Q 48.965 197.771 46.19 192.746 Q 43.415 187.721 43.415 180.371 Q 43.415 171.671 47.54 165.146 Q 51.665 158.621 59.015 154.871 Q 66.365 151.121 75.965 150.671 Q 86.915 150.671 95.015 153.371 Q 103.115 156.071 109.415 159.821 Z" style="fill: rgb(225, 209, 194);"/>
  <path d="M 131.209 169.721 L 146.659 169.721 L 146.659 197.471 L 163.459 197.471 L 163.459 209.621 L 146.659 209.621 L 146.659 260.171 L 131.209 260.171 L 131.209 209.621 L 120.109 209.621 L 120.109 197.471 L 131.209 197.471 Z" style="fill: rgb(225, 209, 194);"/>
  <path d="M 201.16 261.671 Q 192.31 261.671 185.11 257.996 Q 177.91 254.321 173.71 246.971 Q 169.51 239.621 169.51 228.821 Q 169.51 218.171 173.935 210.521 Q 178.36 202.871 185.635 198.746 Q 192.91 194.621 201.46 194.621 Q 210.46 194.621 216.235 198.446 Q 222.01 202.271 225.31 207.371 L 224.26 209.771 L 225.76 197.321 L 240.01 197.321 L 240.01 260.171 L 224.56 260.171 L 224.56 244.421 L 226.21 248.171 Q 225.61 249.371 223.66 251.546 Q 221.71 253.721 218.485 256.121 Q 215.26 258.521 210.985 260.096 Q 206.71 261.671 201.16 261.671 Z M 205.36 249.071 Q 210.31 249.071 214.21 247.271 Q 218.11 245.471 220.81 242.171 Q 223.51 238.871 224.56 234.371 L 224.56 221.321 Q 223.36 217.121 220.51 214.046 Q 217.66 210.971 213.685 209.171 Q 209.71 207.371 204.91 207.371 Q 199.51 207.371 195.01 209.996 Q 190.51 212.621 187.81 217.271 Q 185.11 221.921 185.11 228.071 Q 185.11 233.921 187.885 238.721 Q 190.66 243.521 195.31 246.296 Q 199.96 249.071 205.36 249.071 Z" style="fill: rgb(225, 209, 194);"/>
  <path d="M 309.962 254.321 Q 305.762 257.771 299.837 259.721 Q 293.912 261.671 287.912 261.671 Q 277.562 261.671 269.687 257.621 Q 261.812 253.571 257.462 246.221 Q 253.112 238.871 253.112 228.671 Q 253.112 218.621 257.762 211.196 Q 262.412 203.771 270.062 199.796 Q 277.712 195.821 286.262 195.821 Q 294.062 195.821 300.062 197.921 Q 306.062 200.021 310.412 203.771 L 302.762 213.821 Q 300.212 211.721 296.387 210.071 Q 292.562 208.421 287.612 208.421 Q 282.362 208.421 278.012 211.046 Q 273.662 213.671 271.112 218.246 Q 268.562 222.821 268.562 228.671 Q 268.562 234.221 271.187 238.946 Q 273.812 243.671 278.462 246.371 Q 283.112 249.071 289.112 249.071 Q 293.012 249.071 296.312 247.946 Q 299.612 246.821 302.162 244.721 Z" style="fill: rgb(225, 209, 194);"/>
  <path d="M 322.456 260.171 L 322.456 143.621 L 337.906 143.621 L 337.906 260.171 Z M 353.206 218.171 L 382.006 260.171 L 364.006 260.171 L 343.006 227.021 Z M 333.106 240.821 L 331.606 225.971 L 369.706 195.971 L 379.156 204.221 Z" style="fill: rgb(225, 209, 194);"/>
</svg>