<?xml version="1.0" standalone="no"?>
<!DOCTYPE svg PUBLIC "-//W3C//DTD SVG 20010904//EN"
 "http://www.w3.org/TR/2001/REC-SVG-20010904/DTD/svg10.dtd">
<svg version="1.0" xmlns="http://www.w3.org/2000/svg"
 width="300.000000pt" height="383.000000pt" viewBox="0 0 300.000000 383.000000"
 preserveAspectRatio="xMidYMid meet">
<g transform="translate(0.000000,383.000000) scale(0.100000,-0.100000)"
fill="#1e1e1e" stroke="none">
<path d="M1330 2344 l0 -1487 -78 75 c-128 122 -292 211 -470 255 -44 11 -110
17 -197 17 -152 0 -239 -20 -371 -85 -88 -43 -200 -128 -198 -150 1 -11 168
-256 190 -278 2 -3 19 9 37 27 47 45 143 100 216 122 72 23 204 27 279 9 78
-18 223 -94 289 -151 183 -156 303 -405 303 -628 l0 -70 170 0 170 0 0 70 c0
222 126 483 304 631 66 55 213 130 288 148 75 18 207 14 279 -9 73 -22 169
-77 216 -122 18 -18 35 -30 37 -27 22 22 189 267 190 278 2 22 -110 107 -198
150 -132 65 -219 85 -371 85 -87 0 -153 -6 -197 -17 -178 -44 -342 -133 -470
-255 l-78 -75 0 1487 0 1486 -170 0 -170 0 0 -1486z"/>
</g>
</svg>
