<?xml version="1.0" standalone="no"?>
<!DOCTYPE svg PUBLIC "-//W3C//DTD SVG 20010904//EN"
 "http://www.w3.org/TR/2001/REC-SVG-20010904/DTD/svg10.dtd">
<svg version="1.0" xmlns="http://www.w3.org/2000/svg"
 width="354.021274pt" height="458.824062pt" viewBox="0 0 354.021274 458.824062"
 preserveAspectRatio="xMidYMid meet">
<metadata>
Created by potrace 1.12, written by Peter Selinger 2001-2015
</metadata>
<g transform="translate(-0.006266,458.914460) scale(0.100000,-0.100000)"
fill="#1e1e1e" stroke="none">
<path d="M1940 4252 l0 -337 -485 -485 -485 -485 0 -338 c0 -185 -2 -337 -5
-337 -3 0 -220 124 -481 275 -262 151 -478 275 -480 275 -2 0 -4 -177 -4 -392
l0 -393 797 -460 c438 -253 800 -461 805 -463 4 -2 8 329 8 735 l0 738 485
485 485 485 -2 334 -3 333 -125 72 c-69 40 -212 122 -317 184 l-193 111 0
-337z"/>
<path d="M2900 3692 l0 -337 -485 -485 -485 -485 2 -729 3 -728 580 -335 c319
-184 680 -393 803 -464 l222 -128 -2 391 -3 391 -480 277 -480 278 -3 343 -2
344 485 485 485 485 -2 334 -3 333 -125 72 c-69 40 -212 122 -317 184 l-193
111 0 -337z"/>
</g>
</svg>
