<svg xmlns="http://www.w3.org/2000/svg" viewBox="46.57 143.62 374.29 118.05">
  <path d="M 76.415 151.271 Q 84.965 151.271 92.24 153.596 Q 99.515 155.921 104.69 160.271 Q 109.865 164.621 112.79 170.996 Q 115.715 177.371 115.715 185.771 Q 115.715 192.221 113.765 198.521 Q 111.815 204.821 107.465 209.921 Q 103.115 215.021 96.065 218.096 Q 89.015 221.171 78.515 221.171 L 62.615 221.171 L 62.615 260.171 L 46.565 260.171 L 46.565 151.271 Z M 78.215 205.871 Q 84.365 205.871 88.49 203.921 Q 92.615 201.971 94.94 199.046 Q 97.265 196.121 98.24 192.746 Q 99.215 189.371 99.215 186.221 Q 99.215 183.221 98.24 179.921 Q 97.265 176.621 94.94 173.621 Q 92.615 170.621 88.715 168.671 Q 84.815 166.721 79.115 166.721 L 62.615 166.721 L 62.615 205.871 Z M 96.665 215.171 L 124.865 260.171 L 106.265 260.171 L 77.615 215.621 Z" style="fill: rgb(225, 209, 194);"/>
  <path d="M 165.109 261.671 Q 154.159 261.671 146.359 257.396 Q 138.559 253.121 134.359 245.546 Q 130.159 237.971 130.159 228.221 Q 130.159 218.921 134.884 211.346 Q 139.609 203.771 147.634 199.271 Q 155.659 194.771 165.409 194.771 Q 178.009 194.771 186.334 202.121 Q 194.659 209.471 197.509 222.671 L 146.359 240.371 L 142.759 231.371 L 183.709 216.671 L 180.559 218.621 Q 178.759 213.971 174.859 210.446 Q 170.959 206.921 164.209 206.921 Q 158.809 206.921 154.534 209.546 Q 150.259 212.171 147.784 216.746 Q 145.309 221.321 145.309 227.471 Q 145.309 233.771 147.934 238.496 Q 150.559 243.221 155.134 245.921 Q 159.709 248.621 165.409 248.621 Q 169.459 248.621 173.134 247.121 Q 176.809 245.621 180.109 243.371 L 187.159 254.771 Q 182.209 257.921 176.434 259.796 Q 170.659 261.671 165.109 261.671 Z" style="fill: rgb(225, 209, 194);"/>
  <path d="M 235.661 261.671 Q 226.811 261.671 219.611 257.996 Q 212.411 254.321 208.211 246.971 Q 204.011 239.621 204.011 228.821 Q 204.011 218.171 208.436 210.521 Q 212.861 202.871 220.136 198.746 Q 227.411 194.621 235.961 194.621 Q 244.961 194.621 250.736 198.446 Q 256.511 202.271 259.811 207.371 L 258.761 209.771 L 260.261 197.321 L 274.511 197.321 L 274.511 260.171 L 259.061 260.171 L 259.061 244.421 L 260.711 248.171 Q 260.111 249.371 258.161 251.546 Q 256.211 253.721 252.986 256.121 Q 249.761 258.521 245.486 260.096 Q 241.211 261.671 235.661 261.671 Z M 239.861 249.071 Q 244.811 249.071 248.711 247.271 Q 252.611 245.471 255.311 242.171 Q 258.011 238.871 259.061 234.371 L 259.061 221.321 Q 257.861 217.121 255.011 214.046 Q 252.161 210.971 248.186 209.171 Q 244.211 207.371 239.411 207.371 Q 234.011 207.371 229.511 209.996 Q 225.011 212.621 222.311 217.271 Q 219.611 221.921 219.611 228.071 Q 219.611 233.921 222.386 238.721 Q 225.161 243.521 229.811 246.296 Q 234.461 249.071 239.861 249.071 Z" style="fill: rgb(225, 209, 194);"/>
  <path d="M 318.655 261.671 Q 309.805 261.671 302.755 257.546 Q 295.705 253.421 291.655 245.771 Q 287.605 238.121 287.605 227.921 Q 287.605 217.421 291.955 209.996 Q 296.305 202.571 303.73 198.596 Q 311.155 194.621 320.455 194.621 Q 327.655 194.621 334.18 197.546 Q 340.705 200.471 344.305 205.721 L 343.855 210.971 L 343.855 143.621 L 359.155 143.621 L 359.155 260.171 L 343.705 260.171 L 343.705 245.321 L 345.355 249.371 Q 340.705 254.621 333.955 258.146 Q 327.205 261.671 318.655 261.671 Z M 323.455 248.621 Q 328.705 248.621 332.755 246.821 Q 336.805 245.021 339.655 241.646 Q 342.505 238.271 343.705 233.771 L 343.705 221.171 Q 342.655 216.971 339.73 213.746 Q 336.805 210.521 332.605 208.721 Q 328.405 206.921 323.455 206.921 Q 317.905 206.921 313.33 209.546 Q 308.755 212.171 305.98 216.821 Q 303.205 221.471 303.205 227.621 Q 303.205 233.471 305.98 238.271 Q 308.755 243.071 313.405 245.846 Q 318.055 248.621 323.455 248.621 Z" style="fill: rgb(225, 209, 194);"/>
  <path d="M 395.957 261.521 Q 389.057 261.521 382.607 259.046 Q 376.157 256.571 371.957 251.771 L 378.557 243.071 Q 382.607 246.821 386.732 248.696 Q 390.857 250.571 394.607 250.571 Q 397.607 250.571 400.007 249.896 Q 402.407 249.221 403.907 247.571 Q 405.407 245.921 405.407 243.221 Q 405.407 240.071 403.307 238.271 Q 401.207 236.471 397.907 235.271 Q 394.607 234.071 390.857 233.021 Q 382.907 230.471 378.857 225.746 Q 374.807 221.021 374.807 214.571 Q 374.807 209.621 377.282 205.196 Q 379.757 200.771 384.857 197.921 Q 389.957 195.071 397.457 195.071 Q 404.357 195.071 409.607 196.646 Q 414.857 198.221 419.357 201.971 L 413.357 211.271 Q 410.657 208.571 406.982 207.146 Q 403.307 205.721 400.307 205.571 Q 397.607 205.571 395.357 206.396 Q 393.107 207.221 391.757 208.796 Q 390.407 210.371 390.407 212.471 Q 390.257 215.471 392.432 217.346 Q 394.607 219.221 398.057 220.346 Q 401.507 221.471 404.807 222.671 Q 409.457 224.021 413.057 226.346 Q 416.657 228.671 418.757 231.971 Q 420.857 235.271 420.857 240.371 Q 420.857 245.921 418.157 250.796 Q 415.457 255.671 409.907 258.596 Q 404.357 261.521 395.957 261.521 Z" style="fill: rgb(225, 209, 194);"/>
</svg>